<?xml version="1.0" standalone="no"?>
<!DOCTYPE svg PUBLIC "-//W3C//DTD SVG 20010904//EN"
 "http://www.w3.org/TR/2001/REC-SVG-20010904/DTD/svg10.dtd">
<svg version="1.0" xmlns="http://www.w3.org/2000/svg"
 width="636.000000pt" height="632.000000pt" viewBox="0 0 636.000000 632.000000"
 preserveAspectRatio="xMidYMid meet">

<g transform="translate(0.000000,632.000000) scale(0.100000,-0.100000)"
fill="currentColor" stroke="none">
<path d="M2317 5210 c-43 -13 -150 -94 -194 -147 -75 -89 -247 -382 -276 -467
-34 -98 -16 -203 49 -301 18 -28 82 -106 143 -175 61 -68 118 -139 127 -156
21 -38 26 -21 -139 -414 -52 -124 -120 -288 -152 -365 -70 -174 -112 -265
-132 -287 -14 -16 -36 -18 -167 -18 -219 0 -218 0 -301 -84 -122 -124 -201
-299 -212 -465 -6 -97 2 -122 58 -180 103 -103 370 -229 589 -276 63 -13 66
-13 101 9 65 43 243 188 307 250 87 83 95 102 97 217 1 82 5 104 28 151 28 57
188 244 436 508 75 80 161 173 191 208 44 50 60 62 80 60 52 -6 128 -169 176
-378 36 -156 36 -154 -54 -272 -132 -174 -247 -386 -309 -565 -20 -59 -26 -98
-27 -163 -1 -136 0 -136 407 -635 66 -81 178 -186 213 -201 39 -17 123 -18
254 -4 52 5 142 14 200 19 166 16 298 70 385 159 82 82 199 352 240 551 24
115 37 301 26 368 -22 136 -83 243 -210 368 -44 44 -81 87 -81 96 0 40 288
1147 336 1292 14 42 33 81 42 86 10 5 67 11 127 13 129 6 197 28 369 116 185
96 280 207 262 306 -16 83 -158 390 -234 506 -133 203 -189 224 -580 222 -234
-1 -246 -2 -290 -24 -75 -37 -165 -164 -218 -308 -11 -30 -18 -91 -21 -178
l-6 -133 -70 -57 c-88 -70 -178 -153 -531 -496 -153 -149 -283 -271 -290 -271
-16 0 -66 109 -72 159 -5 35 0 57 30 124 86 197 169 495 182 657 9 107 -3 131
-121 244 -204 195 -495 342 -671 340 -38 0 -81 -4 -97 -9z m1846 -917 c135
-148 137 -150 137 -206 0 -109 -71 -393 -191 -767 -32 -102 -79 -266 -104
-364 -44 -174 -56 -206 -78 -206 -5 0 -65 22 -131 49 -67 27 -156 56 -199 65
-103 21 -132 37 -171 99 -68 107 -246 482 -246 517 0 34 165 187 360 334 36
27 151 133 255 236 216 213 292 280 316 280 10 0 33 -17 52 -37z m-1520 -475
c16 -12 136 -247 152 -297 5 -18 -20 -50 -157 -194 -291 -307 -563 -577 -580
-577 -9 0 -24 7 -33 17 -14 13 -16 33 -13 112 4 88 8 104 47 191 24 52 98 231
165 397 67 167 127 308 133 314 6 6 66 19 134 28 68 10 127 19 130 20 3 0 13
-5 22 -11z"/>
</g>
</svg>
