<?xml version="1.0" standalone="no"?>
<!DOCTYPE svg PUBLIC "-//W3C//DTD SVG 20010904//EN"
 "http://www.w3.org/TR/2001/REC-SVG-20010904/DTD/svg10.dtd">
<svg version="1.0" xmlns="http://www.w3.org/2000/svg"
 width="1114.000000pt" height="400.000000pt" viewBox="0 0 1114.000000 400.000000"
 preserveAspectRatio="xMidYMid meet">

<g transform="translate(0.000000,400.000000) scale(0.100000,-0.100000)"
fill="#2e2b6e" stroke="none">
<path d="M9191 3974 c-61 -32 -125 -107 -197 -234 -75 -132 -94 -176 -94 -219
0 -71 32 -125 165 -280 30 -36 55 -71 55 -79 0 -18 -246 -620 -266 -649 -14
-22 -20 -23 -136 -22 l-122 2 -46 -50 c-107 -116 -168 -309 -125 -392 30 -59
183 -147 330 -189 128 -37 111 -41 236 56 145 112 169 145 169 227 0 45 6 73
23 103 30 56 418 481 437 479 37 -5 103 -166 116 -280 5 -51 4 -53 -56 -136
-119 -165 -201 -348 -202 -451 -1 -68 19 -110 99 -205 32 -38 93 -113 136
-166 84 -106 135 -155 176 -170 33 -13 294 6 371 27 81 23 156 71 190 124 86
134 141 318 143 480 2 99 0 109 -30 173 -20 42 -56 92 -93 132 l-61 63 91 359
c101 398 127 492 142 511 6 6 31 12 57 12 70 0 154 25 252 76 161 83 200 144
163 253 -37 109 -141 306 -187 354 -62 63 -97 72 -302 71 -199 0 -220 -5 -270
-74 -63 -86 -87 -153 -93 -256 l-5 -92 -51 -38 c-28 -22 -152 -137 -275 -257
-123 -120 -229 -216 -235 -214 -6 2 -18 25 -27 51 l-16 47 43 113 c72 188 113
388 93 444 -27 71 -220 222 -354 276 -89 37 -194 45 -244 20z m1239 -631 c51
-58 51 -58 45 -112 -7 -71 -45 -219 -102 -400 -25 -80 -60 -204 -79 -275 -18
-70 -37 -133 -42 -138 -5 -5 -32 1 -68 17 -32 15 -92 35 -133 45 -42 11 -84
29 -99 42 -29 27 -172 312 -172 344 0 26 75 98 205 195 50 37 150 129 224 203
73 75 141 136 151 136 10 0 41 -26 70 -57z m-957 -358 l47 -95 -69 -78 c-147
-163 -389 -404 -402 -400 -26 9 -23 101 6 170 15 35 63 153 106 263 44 110 83
203 87 207 8 8 100 25 147 27 29 1 33 -4 78 -94z"/>
<path d="M2864 3161 c-105 -26 -158 -148 -101 -232 37 -55 81 -79 147 -79 131
0 209 123 148 232 -37 65 -117 98 -194 79z"/>
<path d="M5974 3161 c-105 -26 -158 -148 -101 -232 37 -55 81 -79 147 -79 131
0 209 123 148 232 -37 65 -117 98 -194 79z"/>
<path d="M2325 3146 c-72 -23 -121 -54 -168 -106 -61 -67 -78 -121 -84 -257
l-6 -113 -88 0 -89 0 0 -115 0 -115 90 0 90 0 0 -510 0 -510 150 0 150 0 0
510 0 510 125 0 125 0 0 115 0 115 -126 0 -126 0 4 89 c3 78 6 93 27 115 13
14 40 31 59 37 33 11 119 8 153 -6 12 -5 21 15 44 105 16 65 24 115 19 119
-31 30 -273 41 -349 17z"/>
<path d="M167 3084 c-4 -4 -7 -380 -7 -836 l0 -828 155 0 155 0 -2 833 -3 832
-146 3 c-80 1 -148 -1 -152 -4z"/>
<path d="M6460 2820 l0 -150 -85 0 -85 0 0 -115 0 -115 84 0 85 0 3 -394 3
-393 35 -69 c64 -125 168 -179 345 -178 119 1 189 17 181 42 -5 16 -46 203
-46 209 0 1 -26 0 -58 -3 -41 -5 -68 -2 -95 9 -65 28 -67 40 -67 432 l0 345
120 0 120 0 0 115 0 115 -120 0 -120 0 0 150 0 150 -150 0 -150 0 0 -150z"/>
<path d="M1283 2679 c-114 -14 -210 -74 -264 -163 -19 -30 -37 -56 -41 -56 -5
0 -8 47 -8 105 l0 105 -140 0 -140 0 0 -625 0 -625 150 0 150 0 0 408 c0 405
0 407 24 457 27 59 88 117 142 136 98 33 227 3 279 -65 53 -70 55 -86 55 -527
l0 -409 150 0 150 0 0 418 c0 229 -5 449 -10 487 -36 249 -231 388 -497 354z"/>
<path d="M3863 2679 c-114 -14 -210 -74 -264 -163 -19 -30 -37 -56 -41 -56 -5
0 -8 47 -8 105 l0 105 -140 0 -140 0 0 -625 0 -625 150 0 150 0 0 408 c0 405
0 407 24 457 27 59 88 117 142 136 98 33 227 3 279 -65 53 -70 55 -86 55 -527
l0 -409 150 0 150 0 0 418 c0 229 -5 449 -10 487 -36 249 -231 388 -497 354z"/>
<path d="M5163 2679 c-114 -14 -210 -74 -264 -163 -19 -30 -37 -56 -41 -56 -5
0 -8 47 -8 105 l0 105 -140 0 -140 0 0 -625 0 -625 150 0 150 0 0 408 c0 405
0 407 24 457 27 59 88 117 142 136 98 33 227 3 279 -65 53 -70 55 -86 55 -527
l0 -409 150 0 150 0 0 418 c0 229 -5 449 -10 487 -36 249 -231 388 -497 354z"/>
<path d="M2760 2045 l0 -625 150 0 150 0 0 625 0 625 -150 0 -150 0 0 -625z"/>
<path d="M5870 2045 l0 -625 150 0 150 0 0 625 0 625 -150 0 -150 0 0 -625z"/>
<path d="M7089 2563 c21 -60 123 -346 226 -637 l188 -529 -18 -54 c-39 -114
-112 -163 -215 -143 -29 6 -56 8 -59 4 -3 -3 -20 -53 -37 -112 -25 -86 -29
-109 -18 -115 35 -20 175 -31 256 -19 152 22 254 97 321 235 19 40 133 347
252 682 120 336 232 652 251 703 l33 92 -158 0 -158 0 -143 -470 c-80 -259
-148 -470 -152 -470 -4 0 -16 30 -27 66 -11 36 -75 247 -143 470 l-123 404
-157 0 -157 0 38 -107z"/>
<path d="M8503 1552 c-92 -33 -163 -103 -199 -198 -26 -69 -16 -194 21 -262
58 -106 160 -166 285 -167 128 0 232 65 296 185 15 28 19 56 19 135 0 112 -14
151 -81 225 -78 87 -228 122 -341 82z m217 -92 c163 -83 172 -318 16 -415 -40
-24 -62 -30 -120 -33 -66 -3 -75 -1 -126 30 -185 113 -145 385 65 439 43 11
122 1 165 -21z"/>
<path d="M8490 1251 l0 -151 40 0 40 0 0 50 c0 47 2 50 25 50 20 0 30 -10 50
-50 24 -47 27 -50 65 -50 22 0 40 3 40 6 0 3 -12 27 -27 54 l-27 47 22 28 c30
38 29 95 -2 132 -23 27 -29 28 -125 31 l-101 4 0 -151z m144 89 c52 -19 19
-90 -41 -90 -21 0 -23 5 -23 50 0 55 10 61 64 40z"/>
</g>
</svg>
